PathFileType  4	(X/Y/Z) C:\Users\antoi\Documents\MyRepositories\mobilecap\ResultsAnalysis
DataRate	CameraRate	NumFrames	NumMarkers	Units	OrigDataRate	OrigDataStartFrame	OrigNumFrames
100.0	100.0	4	51	mm	100.0	495	1318
Frame#	Time	r_knee			r_shank_antsup			r_ankle			r_calc			r_5meta			r_toe			L_knee			L_shank_antsup			L_ankle			L_calc			L_5meta			L_toe			r_sh2			r_sh3			r_sh4			L_sh2			L_sh3			r_thigh1			r_thigh2			r_thigh3			r_thigh4			r_thigh5			L_thigh1			L_thigh2			L_thigh3			L_thigh4			r.ASIS			r.PSIS			L.ASIS			L.PSIS			C7			R_Shoulder			L_Shoulder			R_Sternum			L_Sternum			R_humerus			R_elbow_med			R_elbow_lat			R_forearm			R_wrist_radius			R_wrist_ulna			L_humerus			L_elbow_med			L_elbow_lat			L_forearm			L_wrist_radius			L_wrist_ulna			R_HJC			L_HJC			R_HJC_reg			L_HJC_reg			
		X1	Y1	Z1	X2	Y2	Z2	X3	Y3	Z3	X4	Y4	Z4	X5	Y5	Z5	X6	Y6	Z6	X7	Y7	Z7	X8	Y8	Z8	X9	Y9	Z9	X10	Y10	Z10	X11	Y11	Z11	X12	Y12	Z12	X13	Y13	Z13	X14	Y14	Z14	X15	Y15	Z15	X16	Y16	Z16	X17	Y17	Z17	X18	Y18	Z18	X19	Y19	Z19	X20	Y20	Z20	X21	Y21	Z21	X22	Y22	Z22	X23	Y23	Z23	X24	Y24	Z24	X25	Y25	Z25	X26	Y26	Z26	X27	Y27	Z27	X28	Y28	Z28	X29	Y29	Z29	X30	Y30	Z30	X31	Y31	Z31	X32	Y32	Z32	X33	Y33	Z33	X34	Y34	Z34	X35	Y35	Z35	X36	Y36	Z36	X37	Y37	Z37	X38	Y38	Z38	X39	Y39	Z39	X40	Y40	Z40	X41	Y41	Z41	X42	Y42	Z42	X43	Y43	Z43	X44	Y44	Z44	X45	Y45	Z45	X46	Y46	Z46	X47	Y47	Z47	X48	Y48	Z48	X49	Y49	Z49	X50	Y50	Z50	X51	Y51	Z51	

495	4.94000000	-270.59627	503.74430	-506.91999	-230.13513	443.96117	-504.68285	-267.52564	103.74089	-425.83736	-333.81458	65.61957	-455.79687	-163.11275	44.37123	-380.84442	-113.70563	67.89573	-436.75997	-270.02380	500.85485	-952.53041	-242.16655	416.15227	-981.00202	-289.35770	101.39136	-1009.05807	-343.86044	61.75584	-956.52059	-188.28321	42.34139	-1067.25693	-140.34684	67.49609	-1018.48531	-244.17201	338.93263	-455.65282	-308.85965	454.33207	-482.58551	-316.05640	344.26858	-453.17443	-329.79593	422.39522	-962.46121	-332.35731	303.33563	-993.04016	-200.02043	813.29793	-540.92386	-210.80762	704.11284	-523.48334	-270.34150	688.61859	-498.89392	-314.32162	821.73269	-541.84311	-319.34732	705.72017	-522.13043	-242.60814	773.99735	-962.35532	-233.11027	635.67563	-960.59516	-341.92169	764.71335	-899.78339	-330.35364	625.07304	-916.30530	-166.70747	958.62528	-609.85942	-341.79431	1023.74876	-694.21666	-155.93502	939.20742	-860.03884	-343.96087	1026.59727	-797.28403	-241.84504	1421.34715	-756.31200	-160.87470	1387.43080	-585.35308	-176.34945	1396.44952	-923.82360	-103.52745	1372.18822	-732.44243	-98.57574	1376.56704	-772.74727	-175.69430	1271.63307	-502.02205	-263.85352	1065.79561	-495.10110	-231.86381	1096.65672	-427.25034	-115.49117	1122.43365	-500.53478	-19.89927	1140.10845	-579.05734	2.57439	1115.17357	-566.13126	-185.16091	1289.33171	-994.49770	-261.08544	1063.80883	-961.14456	-242.00087	1094.69730	-1038.40039	-146.14879	1127.01066	-992.42068	-20.98014	1150.14809	-925.68760	-5.31000	1125.54243	-944.48777	-253.93965	891.40502	-633.13096	-247.55899	882.38237	-839.30611	-242.59699	884.80633	-644.77313	-246.08180	889.38429	-810.44166	
496	4.95000000	-269.85597	503.74576	-507.36872	-229.63808	444.00664	-505.16215	-267.72169	104.24183	-425.30060	-333.86180	65.62131	-455.84917	-163.11654	44.38516	-380.85454	-113.69251	67.92289	-436.78348	-269.88678	500.83844	-952.89492	-242.21910	416.19355	-981.35948	-289.35509	101.36390	-1009.08436	-343.86132	61.75701	-956.51782	-188.29284	42.29016	-1067.28198	-140.30970	67.39397	-1018.47836	-243.69100	338.93531	-455.96402	-308.27030	454.38439	-483.25501	-315.66020	344.21629	-453.53648	-329.97111	422.42748	-962.99034	-332.40458	303.29393	-993.31844	-198.72674	813.12865	-541.81262	-209.66096	704.03488	-524.14328	-269.24713	688.54868	-499.73584	-313.08656	821.64906	-542.69752	-318.21806	705.69256	-522.77183	-241.25500	773.88537	-963.06341	-232.15165	635.63661	-961.15702	-340.80529	765.16760	-900.88425	-329.72235	625.43308	-917.17410	-165.65299	958.70216	-610.67599	-340.94660	1023.19520	-695.21811	-154.65093	939.62697	-860.89490	-342.67914	1026.22993	-797.71203	-242.93615	1421.57441	-757.24773	-162.25082	1387.55180	-586.09928	-177.36919	1396.49878	-924.72716	-104.64978	1372.58346	-733.08002	-99.62239	1376.84101	-773.56705	-177.66462	1271.65050	-502.79795	-266.59764	1066.18604	-496.48590	-234.70686	1096.69658	-428.57862	-117.90841	1122.20835	-501.34890	-21.91776	1139.54922	-579.58452	0.37826	1114.50427	-566.64918	-186.27135	1289.13337	-995.27614	-263.14558	1063.93603	-960.87254	-243.88879	1094.54498	-1038.36176	-147.84694	1126.66706	-992.71813	-22.54243	1149.47786	-926.11543	-7.03312	1124.67692	-944.84246	-252.53937	891.13037	-634.05265	-246.00575	882.44309	-840.23722	-241.45074	884.43751	-646.08850	-244.24491	889.34511	-811.77263	
497	4.96000000	-268.95118	503.71820	-507.82986	-228.94282	444.06914	-505.68034	-267.77010	104.56861	-425.07650	-333.83525	65.66755	-455.87194	-163.11382	44.40081	-380.86481	-113.68952	67.91953	-436.84333	-269.52939	500.87013	-953.30900	-242.12537	416.18608	-981.64736	-289.34042	101.32306	-1009.12415	-343.84026	61.76891	-956.50335	-188.29789	42.24749	-1067.30370	-140.28212	67.29494	-1018.47295	-243.01654	338.90082	-456.18985	-307.29538	454.31033	-483.65811	-315.15639	344.24381	-454.01195	-329.94484	422.47834	-963.59269	-332.29753	303.31453	-993.77062	-197.61233	813.00114	-542.65726	-208.49062	703.87676	-525.05207	-268.18222	688.47541	-500.55100	-311.83372	821.56175	-543.45957	-317.07949	705.72841	-523.38088	-239.92841	773.74043	-963.76605	-231.11368	635.59482	-961.66831	-339.67142	765.59572	-902.10732	-328.99493	625.73174	-918.05569	-164.59609	958.75567	-611.40889	-340.15135	1022.74428	-696.10887	-153.51905	939.88130	-861.71815	-341.17364	1025.96180	-797.80186	-244.02737	1421.81046	-758.21338	-163.58133	1387.65637	-586.77200	-178.35912	1396.53363	-925.67036	-105.72993	1372.82889	-733.86077	-100.67184	1377.13575	-774.30809	-179.56134	1271.60251	-503.60119	-269.37730	1066.33432	-498.10222	-237.35387	1096.74423	-429.79020	-120.23706	1121.88040	-502.10145	-23.87551	1138.98283	-580.06824	-1.75504	1113.87730	-567.11919	-187.24307	1288.86460	-995.91300	-265.01083	1064.06182	-960.80205	-245.68369	1094.34857	-1038.30485	-149.42629	1126.25961	-993.10283	-24.01367	1148.79809	-926.52870	-8.58163	1123.74318	-945.12224	-251.19483	890.89084	-634.80646	-244.63170	882.47627	-841.00126	-240.61436	883.96626	-647.54853	-242.27439	889.21184	-813.28916	
498	4.97000000	-267.96748	503.54606	-508.48964	-227.98356	444.01983	-506.21809	-267.61484	104.56028	-425.32701	-333.74533	65.73165	-455.88453	-163.09706	44.42345	-380.86410	-113.68934	67.92692	-436.84826	-268.97471	500.92500	-953.75727	-241.84055	416.10964	-981.83348	-289.31026	101.27036	-1009.10346	-343.82143	61.79361	-956.51955	-188.30331	42.21021	-1067.31549	-140.26464	67.20008	-1018.48207	-242.39943	338.67370	-456.47600	-306.28783	454.47985	-483.88044	-314.51782	344.50632	-454.40838	-329.66519	422.54346	-964.18389	-332.00246	303.36508	-994.23727	-196.37696	812.86827	-543.51844	-207.34310	703.69189	-525.98891	-267.04571	688.37450	-501.21072	-310.59095	821.49868	-544.12732	-315.89746	705.72136	-524.03694	-238.59433	773.71274	-964.53139	-230.08946	635.58435	-962.08509	-338.62852	765.87007	-903.42765	-328.07775	625.95399	-919.01010	-163.56000	958.83521	-611.95732	-339.37249	1022.30201	-696.87762	-152.44499	940.09934	-862.45870	-340.00559	1025.66152	-798.23431	-245.05498	1422.02568	-759.19918	-164.96467	1387.81404	-587.31044	-179.37972	1396.48868	-926.64400	-106.51027	1372.78975	-735.07981	-101.65309	1377.35048	-774.95440	-181.38296	1271.53611	-504.32025	-271.98165	1065.90942	-500.30034	-239.87353	1096.81094	-430.91171	-122.40565	1121.47568	-502.85860	-25.75461	1138.42453	-580.42720	-3.83581	1113.25358	-567.44198	-188.20089	1288.50931	-996.52273	-266.72550	1064.32792	-960.76667	-247.34775	1094.08405	-1038.37308	-150.88087	1125.73154	-993.35883	-25.35975	1148.04612	-926.86071	-9.98577	1122.85038	-945.30050	-249.95712	890.70401	-635.49422	-243.31644	882.44662	-841.69302	-239.61513	883.56509	-648.55262	-240.65317	889.06198	-814.41404	
